HIERARCHY
ROOT Hips
{
	OFFSET 0.00000 0.00000 0.00000
	CHANNELS 6 Xposition Yposition Zposition Zrotation Yrotation Xrotation 
	JOINT LHipJoint
	{
		OFFSET 0 0 0
		CHANNELS 3 Zrotation Yrotation Xrotation
		JOINT LeftUpLeg
		{
			OFFSET 1.52977 -1.71332 0.88991
			CHANNELS 3 Zrotation Yrotation Xrotation
			JOINT LeftLeg
			{
				OFFSET 2.23949 -6.15296 0.00000
				CHANNELS 3 Zrotation Yrotation Xrotation
				JOINT LeftFoot
				{
					OFFSET 2.68396 -7.37412 0.00000
					CHANNELS 3 Zrotation Yrotation Xrotation
					JOINT LeftToeBase
					{
						OFFSET 0.20538 -0.56428 2.52710
						CHANNELS 3 Zrotation Yrotation Xrotation
						End Site
						{
							OFFSET 0.00000 -0.00000 1.29919
						}
					}
				}
			}
		}
	}
	JOINT RHipJoint
	{
		OFFSET 0 0 0
		CHANNELS 3 Zrotation Yrotation Xrotation
		JOINT RightUpLeg
		{
			OFFSET -1.45689 -1.71333 0.88991
			CHANNELS 3 Zrotation Yrotation Xrotation
			JOINT RightLeg
			{
				OFFSET -2.36700 -6.50329 0.00000
				CHANNELS 3 Zrotation Yrotation Xrotation
				JOINT RightFoot
				{
					OFFSET -2.69814 -7.41308 0.00000
					CHANNELS 3 Zrotation Yrotation Xrotation
					JOINT RightToeBase
					{
						OFFSET -0.18734 -0.51471 2.37479
						CHANNELS 3 Zrotation Yrotation Xrotation
						End Site
						{
							OFFSET -0.00000 -0.00000 1.22113
						}
					}
				}
			}
		}
	}
	JOINT LowerBack
	{
		OFFSET 0 0 0
		CHANNELS 3 Zrotation Yrotation Xrotation
		JOINT Spine
		{
			OFFSET 0.04294 2.14638 -0.31163
			CHANNELS 3 Zrotation Yrotation Xrotation
			JOINT Spine1
			{
				OFFSET -0.00400 2.17216 0.01486
				CHANNELS 3 Zrotation Yrotation Xrotation
				JOINT Neck
				{
					OFFSET 0 0 0
					CHANNELS 3 Zrotation Yrotation Xrotation
					JOINT Neck1
					{
						OFFSET 0.03869 1.76598 0.14916
						CHANNELS 3 Zrotation Yrotation Xrotation
						JOINT Head
						{
							OFFSET -0.00760 1.75513 -0.18948
							CHANNELS 3 Zrotation Yrotation Xrotation
							End Site
							{
								OFFSET -0.00601 1.82444 -0.08310
							}
						}
					}
				}
				JOINT LeftShoulder
				{
					OFFSET 0 0 0
					CHANNELS 3 Zrotation Yrotation Xrotation
					JOINT LeftArm
					{
						OFFSET 3.73696 0.92058 0.01733
						CHANNELS 3 Zrotation Yrotation Xrotation
						JOINT LeftForeArm
						{
							OFFSET 5.22771 -0.00000 0.00000
							CHANNELS 3 Zrotation Yrotation Xrotation
							JOINT LeftHand
							{
								OFFSET 3.45251 -0.00000 0.00000
								CHANNELS 3 Zrotation Yrotation Xrotation
								JOINT LeftFingerBase
								{
									OFFSET 0 0 0
									CHANNELS 3 Zrotation Yrotation Xrotation
									JOINT LeftHandIndex1
									{
										OFFSET 0.55212 -0.00000 0.00000
										CHANNELS 3 Zrotation Yrotation Xrotation
										End Site
										{
											OFFSET 0.44513 -0.00000 0.00000
										}
									}
								}
								JOINT LThumb
								{
									OFFSET 0 0 0
									CHANNELS 3 Zrotation Yrotation Xrotation
									End Site
									{
										OFFSET 0.45193 -0.00000 0.45193
									}
								}
							}
						}
					}
				}
				JOINT RightShoulder
				{
					OFFSET 0 0 0
					CHANNELS 3 Zrotation Yrotation Xrotation
					JOINT RightArm
					{
						OFFSET -3.63819 0.83094 -0.13694
						CHANNELS 3 Zrotation Yrotation Xrotation
						JOINT RightForeArm
						{
							OFFSET -5.23980 -0.00000 -0.00000
							CHANNELS 3 Zrotation Yrotation Xrotation
							JOINT RightHand
							{
								OFFSET -3.48042 -0.00000 -0.00000
								CHANNELS 3 Zrotation Yrotation Xrotation
								JOINT RightFingerBase
								{
									OFFSET 0 0 0
									CHANNELS 3 Zrotation Yrotation Xrotation
									JOINT RightHandIndex1
									{
										OFFSET -0.61871 -0.00000 0.00000
										CHANNELS 3 Zrotation Yrotation Xrotation
										End Site
										{
											OFFSET -0.49882 -0.00000 0.00000
										}
									}
								}
								JOINT RThumb
								{
									OFFSET 0 0 0
									CHANNELS 3 Zrotation Yrotation Xrotation
									End Site
									{
										OFFSET -0.50644 -0.00000 0.50644
									}
								}
							}
						}
					}
				}
			}
		}
	}
}
MOTION
Frames: 12
Frame Time: .0083333
24.6071 17.6930 -6.5203 -645.6980 -86.0264 659.7430 0.0000 0.0000 0.0000 -27.7689 15.5964 -1.2728 0.0230 0.9793 2.6918 1.8701 2.7440 25.1460 1.8831 -8.6182 -24.6083 0.0000 0.0000 0.0000 9.3623 16.1872 -51.4800 -2.5386 -9.9078 28.6787 1.4849 -30.4126 12.5760 -1.4317 -7.5656 21.4024 -1.7840 -1.6632 19.9699 -2.8580 -3.1641 8.1824 -1.3325 -1.7801 -2.3967 3.3019 0.6775 6.9483 1.7295 1.3733 -21.5802 -0.0775 0.0232 -7.7836 0.0000 -0.0000 0.0000 -86.7617 5.3793 21.9850 16.0235 -25.5525 -3.6561 -0.0000 0.0000 -20.2789 22.0031 13.7212 5.4750 -7.1250 0.0000 -0.0000 -5.0138 44.6750 0.0403 0.0000 -0.0000 0.0000 91.1079 -3.0843 24.3265 -15.3359 24.6119 -3.3646 0.0000 0.0000 4.6529 -22.0260 -9.6442 3.8773 7.1250 -0.0000 -0.0000 4.3585 -40.3301 0.5029
24.4116 17.6478 -6.5363 -648.8880 -85.6136 662.8020 0.0000 0.0000 0.0000 -27.6590 16.0501 1.1016 0.0000 -0.0000 -0.0000 2.0977 3.8893 26.4595 1.7791 -8.3901 -23.9052 0.0000 0.0000 0.0000 9.1589 16.0224 -51.3918 -2.6267 -10.0647 29.1865 1.4816 -30.6427 12.8621 -1.4894 -7.7099 21.8363 -1.9638 -1.7224 19.8908 -2.8614 -3.2697 8.2272 -1.2164 -1.8364 -2.3001 3.3043 0.6383 6.9734 1.6893 1.3135 -21.5566 -0.0862 -0.0001 -7.7803 0.0000 0.0000 0.0000 -86.8012 5.5108 22.0644 16.0490 -25.5870 -3.6671 -0.0000 0.0000 -20.2537 21.9578 13.7464 5.4724 -7.1250 0.0000 -0.0000 -5.0600 44.6963 0.0380 0.0000 0.0000 0.0000 91.0904 -3.1296 24.1353 -15.2551 24.5003 -3.3310 0.0000 0.0000 4.7472 -22.0521 -9.6470 3.8834 7.1250 -0.0000 -0.0000 4.3360 -40.3352 0.4998
24.2121 17.5989 -6.5520 -651.7910 -85.1964 665.5840 0.0000 0.0000 0.0000 -27.4978 15.9686 2.0162 0.0000 -0.0000 -0.0000 2.1430 4.3739 26.6726 1.6743 -8.1520 -23.1766 0.0000 0.0000 0.0000 8.9616 15.8774 -51.2523 -2.7344 -10.2522 29.7974 1.4842 -30.8101 13.0344 -1.5388 -7.8310 22.2018 -2.1088 -1.7880 19.7917 -2.8614 -3.3752 8.2666 -1.1173 -1.8920 -2.2002 3.2966 0.5923 6.9874 1.6601 1.2443 -21.5143 -0.0888 -0.0274 -7.7690 0.0000 -0.0000 0.0000 -86.8351 5.6534 22.1336 16.0719 -25.6180 -3.6770 -0.0000 0.0000 -20.2359 21.9138 13.7327 5.4551 -7.1250 0.0000 -0.0000 -5.0980 44.6764 0.0408 0.0000 -0.0000 0.0000 91.0733 -3.1927 23.9481 -15.1780 24.3935 -3.2991 0.0000 0.0000 4.8352 -22.0810 -9.6402 3.8864 7.1250 -0.0000 -0.0000 4.3098 -40.3305 0.4972
24.0087 17.5458 -6.5673 -654.3960 -84.7767 668.0770 0.0000 0.0000 0.0000 -27.3173 15.8749 2.9370 0.0000 0.0000 0.0000 2.1884 4.9408 26.8788 1.5523 -7.8637 -22.3009 0.0000 0.0000 0.0000 8.7760 15.7485 -51.0673 -2.8642 -10.4719 30.5189 1.4924 -30.7854 12.9508 -1.5822 -7.9354 22.5181 -2.2286 -1.8592 19.6680 -2.8581 -3.4811 8.2987 -1.0303 -1.9471 -2.0962 3.2830 0.5417 6.9960 1.6357 1.1690 -21.4500 -0.0884 -0.0568 -7.7496 -0.0000 -0.0000 0.0000 -86.8695 5.8108 22.1726 16.0904 -25.6431 -3.6850 -0.0000 0.0000 -20.2222 21.8649 13.7028 5.4301 -7.1250 0.0000 -0.0000 -5.1373 44.6387 0.0459 -0.0000 -0.0000 0.0000 91.0512 -3.2753 23.7781 -15.1026 24.2889 -3.2680 0.0000 0.0000 4.9280 -22.1047 -9.6274 3.8859 7.1250 -0.0000 -0.0000 4.2875 -40.3189 0.4959
23.8019 17.4884 -6.5818 -656.7070 -84.3546 670.2820 0.0000 0.0000 0.0000 -27.1210 15.7756 3.8682 0.0000 0.0000 0.0000 2.2328 5.5992 27.0748 1.4112 -7.5135 -21.2459 0.0000 0.0000 0.0000 8.6032 15.6302 -50.8376 -3.0194 -10.7264 31.3627 1.4935 -30.4304 12.5371 -1.5977 -7.9723 22.6299 -2.3222 -1.9343 19.5301 -2.8542 -3.5861 8.3248 -0.9585 -2.0010 -1.9923 3.2589 0.4892 6.9989 1.6170 1.0907 -21.3681 -0.0841 -0.0866 -7.7235 -0.0000 0.0000 0.0000 -86.9041 5.9763 22.1794 16.1004 -25.6566 -3.6893 -0.0000 0.0000 -20.2157 21.8175 13.6597 5.4006 -7.1250 0.0000 -0.0000 -5.1728 44.5874 0.0528 -0.0000 0.0000 0.0000 91.0207 -3.3719 23.6325 -15.0276 24.1845 -3.2372 0.0000 0.0000 5.0136 -22.1146 -9.6121 3.8817 7.1250 -0.0000 -0.0000 4.2768 -40.3033 0.4963
23.5921 17.4266 -6.5960 -658.6840 -83.9352 672.1620 0.0000 0.0000 0.0000 -26.9129 15.6791 4.8028 0.0000 0.0000 0.0000 2.2747 6.3506 27.2554 1.2498 -7.0879 -19.9759 0.0000 0.0000 0.0000 8.4484 15.5243 -50.5697 -3.2039 -11.0180 32.3407 1.4332 -29.4676 11.8497 -1.5656 -7.8956 22.3974 -2.3997 -2.0056 19.3746 -2.8503 -3.6819 8.3458 -0.8988 -2.0501 -1.8855 3.2355 0.4289 6.9906 1.5944 1.0003 -21.2673 -0.0803 -0.1212 -7.6891 -0.0000 0.0000 0.0000 -86.9376 6.1439 22.1530 16.0990 -25.6547 -3.6887 -0.0000 0.0000 -20.2179 21.7757 13.6248 5.3758 -7.1250 0.0000 -0.0000 -5.2047 44.5452 0.0586 -0.0000 0.0000 0.0000 90.9870 -3.4823 23.4996 -14.9563 24.0852 -3.2081 0.0000 0.0000 5.0935 -22.1027 -9.6072 3.8774 7.1250 -0.0000 -0.0000 4.2867 -40.2970 0.4981
23.3804 17.3611 -6.6094 -660.4000 -83.5248 673.7840 0.0000 0.0000 0.0000 -26.6901 15.5879 5.7379 0.0000 0.0000 0.0000 2.3142 7.1468 27.4325 1.0829 -6.6141 -18.5770 0.0000 0.0000 0.0000 8.3342 15.4039 -50.2736 -3.4197 -11.3452 33.4533 1.2743 -27.7400 11.0337 -1.4617 -7.6411 21.6291 -2.4545 -2.0751 19.2113 -2.8478 -3.7706 8.3597 -0.8555 -2.0949 -1.7835 3.2107 0.3659 6.9785 1.5711 0.9058 -21.1537 -0.0762 -0.1572 -7.6499 -0.0000 -0.0000 0.0000 -86.9709 6.3071 22.0784 16.0784 -25.6269 -3.6798 -0.0000 0.0000 -20.2244 21.7336 13.6114 5.3593 -7.1250 0.0000 -0.0000 -5.2408 44.5260 0.0615 -0.0000 -0.0000 0.0000 90.9494 -3.6054 23.3835 -14.8870 23.9885 -3.1799 0.0000 0.0000 5.1601 -22.0732 -9.5872 3.8637 7.1250 -0.0000 -0.0000 4.3098 -40.2731 0.5033
23.1688 17.2939 -6.6217 -661.8690 -83.1354 675.1680 0.0000 0.0000 0.0000 -26.4555 15.5057 6.6506 0.0000 0.0000 0.0000 2.3586 7.9355 27.6562 0.9332 -6.1536 -17.2308 0.0000 0.0000 0.0000 8.2775 15.2586 -49.9724 -3.6660 -11.7022 34.6864 1.0347 -25.3060 10.1846 -1.2879 -7.1911 20.2827 -2.4767 -2.1412 19.0591 -2.8485 -3.8495 8.3606 -0.8352 -2.1335 -1.7033 3.1842 0.3017 6.9724 1.5493 0.8104 -21.0414 -0.0712 -0.1937 -7.6123 -0.0000 0.0000 0.0000 -87.0025 6.4610 21.9538 16.0351 -25.5682 -3.6611 -0.0000 0.0000 -20.2270 21.6993 13.6175 5.3524 -7.1250 0.0000 -0.0000 -5.2732 44.5285 0.0615 -0.0000 0.0000 0.0000 90.9136 -3.7412 23.2734 -14.8214 23.8967 -3.1532 0.0000 0.0000 5.2116 -22.0231 -9.5702 3.8473 7.1250 -0.0000 -0.0000 4.3515 -40.2506 0.5106
22.9609 17.2275 -6.6334 -663.2970 -82.7600 676.5550 0.0000 0.0000 0.0000 -26.2196 15.1620 6.7859 0.0051 0.4627 1.2715 2.3421 8.2752 27.5402 0.8073 -5.7341 -16.0148 0.0000 0.0000 0.0000 8.2712 15.0837 -49.7291 -3.9381 -12.0776 36.0069 0.7761 -22.4349 9.2983 -1.0607 -6.5481 18.3831 -2.4561 -2.2152 18.9244 -2.8489 -3.9310 8.3332 -0.8365 -2.1711 -1.6649 3.1557 0.2388 6.9682 1.5316 0.7174 -20.9356 -0.0649 -0.2297 -7.5772 -0.0000 -0.0000 0.0000 -87.0323 6.6035 21.7786 15.9688 -25.4783 -3.6325 -0.0000 0.0000 -20.2181 21.6840 13.6450 5.3588 -7.1250 0.0000 -0.0000 -5.2925 44.5557 0.0582 -0.0000 -0.0000 0.0000 90.8818 -3.8828 23.1678 -14.7577 23.8075 -3.1275 0.0000 0.0000 5.2541 -21.9566 -9.5478 3.8257 7.1250 -0.0000 -0.0000 4.4067 -40.2209 0.5204
22.7576 17.1649 -6.6438 -664.5380 -82.4435 677.7710 0.0000 0.0000 0.0000 -25.9786 14.4709 5.6862 0.0682 1.6852 4.6366 2.2342 7.8225 26.8943 0.7137 -5.3990 -15.0503 0.0000 0.0000 0.0000 8.3401 14.9161 -49.5242 -4.2274 -12.4571 37.3687 0.5559 -19.5065 8.3619 -0.8113 -5.7481 16.0552 -2.3792 -2.2832 18.8551 -2.8496 -3.9980 8.2801 -0.8685 -2.1990 -1.6914 3.1174 0.1789 6.9714 1.5265 0.6299 -20.8443 -0.0532 -0.2640 -7.5483 0.0000 0.0000 0.0000 -87.0615 6.7383 21.5639 15.8836 -25.3626 -3.5960 -0.0000 0.0000 -20.1885 21.7017 13.6810 5.3774 -7.1250 0.0000 -0.0000 -5.2829 44.5960 0.0528 0.0000 0.0000 0.0000 90.8526 -4.0216 23.0715 -14.6901 23.7126 -3.1002 0.0000 0.0000 5.2758 -21.9041 -9.5180 3.8038 7.1250 -0.0000 -0.0000 4.4487 -40.1846 0.5293
22.5607 17.1094 -6.6529 -665.6660 -82.2265 678.8940 0.0000 0.0000 0.0000 -25.7076 14.0246 5.0766 0.1520 2.5122 6.9234 2.2302 7.6081 26.8804 0.6670 -5.2229 -14.5455 0.0000 0.0000 0.0000 8.5002 14.8008 -49.3632 -4.5227 -12.8252 38.7178 0.4051 -16.9288 7.3890 -0.5804 -4.8783 13.5619 -2.2176 -2.3417 18.8735 -2.8466 -4.0419 8.1997 -0.9432 -2.2125 -1.7977 3.0707 0.1243 6.9745 1.5378 0.5516 -20.7682 -0.0354 -0.2955 -7.5244 -0.0000 0.0000 0.0000 -87.0844 6.8670 21.3302 15.7858 -25.2293 -3.5542 -0.0000 0.0000 -20.1403 21.7718 13.7130 5.4087 -7.1250 0.0000 -0.0000 -5.2246 44.6384 0.0468 -0.0000 0.0000 0.0000 90.8309 -4.1419 22.9819 -14.6141 23.6057 -3.0697 0.0000 0.0000 5.2823 -21.8843 -9.4787 3.7845 7.1250 -0.0000 -0.0000 4.4609 -40.1409 0.5356
22.3700 17.0628 -6.6605 -666.6690 -82.1626 679.9030 0.0000 0.0000 0.0000 -25.3866 13.7177 4.4813 0.2557 3.2538 8.9860 2.2757 7.3707 27.1782 0.6546 -5.1749 -14.4081 0.0000 0.0000 0.0000 8.7698 14.7934 -49.2256 -4.8125 -13.1695 40.0061 0.3152 -14.8472 6.4012 -0.3947 -4.0337 11.1715 -1.9594 -2.3792 18.9881 -2.8326 -4.0455 8.0984 -1.0629 -2.2038 -1.9815 3.0190 0.0776 6.9738 1.5592 0.4850 -20.7062 -0.0145 -0.3226 -7.5045 -0.0000 -0.0000 0.0000 -87.1059 6.9941 21.0942 15.6856 -25.0924 -3.5115 -0.0000 0.0000 -20.0710 21.9006 13.7553 5.4602 -7.1250 0.0000 -0.0000 -5.1142 44.6987 0.0381 -0.0000 -0.0000 0.0000 90.8098 -4.2246 22.9055 -14.5262 23.4820 -3.0346 0.0000 0.0000 5.2956 -21.8999 -9.4398 3.7721 7.1250 -0.0000 -0.0000 4.4423 -40.1007 0.5378
